<?xml version="1.0" encoding="UTF-8" standalone="no"?>
<!-- Created with Inkscape (http://www.inkscape.org/) -->

<svg
   width="71.938293mm"
   height="16.933329mm"
   viewBox="0 0 71.938293 16.933329"
   version="1.1"
   id="svg1"
   xmlns="http://www.w3.org/2000/svg"
   xmlns:svg="http://www.w3.org/2000/svg">
  <defs
     id="defs1">
    <clipPath
       clipPathUnits="userSpaceOnUse"
       id="clipPath1">
      <rect
         style="fill:#ffffff;fill-opacity:1;fill-rule:nonzero;stroke-width:3.0889"
         id="rect1"
         width="18.421862"
         height="8.3168783"
         x="86.862511"
         y="70.332825"
         ry="0" />
    </clipPath>
  </defs>
  <g
     id="layer2"
     transform="translate(-65.309335,-71.238185)">
    <path
       d="m 90.533136,78.640688 c 0.170612,-0.43968 0.613675,-0.788054 1.10302,-0.699866 0.569968,0.04069 1.108644,0.427063 1.688104,0.281579 0.46565,-0.186593 0.545184,-0.756564 0.606556,-1.193155 0.04583,-0.221403 0.02333,-0.763793 0.05762,-0.8041 0.319982,1.242927 0.814568,2.428841 1.282035,3.620823 0.133982,0.35489 0.26631,0.850862 -0.08649,1.127471 -0.565205,0.409736 -1.276563,0.528064 -1.93111,0.730469 -0.219653,0.08575 -0.322698,0.08104 -0.138579,-0.144343 1.760783,-3.090951 3.448921,-6.222864 5.233084,-9.300644 0.160263,-0.269934 0.517468,-0.918641 0.550035,-0.939994 -0.658689,1.504831 -1.229436,3.079607 -1.382675,4.725344 -0.05575,0.795187 -4.6e-5,1.743599 0.666208,2.288122 0.138432,0.176227 0.702709,0.305271 0.674131,0.322624 -2.773978,-0.0048 -5.547957,-0.0096 -8.321936,-0.01433 z"
       id="text16"
       style="font-weight:900;font-size:14.1111px;font-family:'Ysabeau Infant';-inkscape-font-specification:'Ysabeau Infant Heavy';fill:#3cf060;fill-opacity:1;fill-rule:nonzero;stroke-width:0.344876"
       aria-label="v"
       mask="none"
       clip-path="url(#clipPath1)" />
  </g>
  <g
     id="layer1"
     transform="translate(-65.309335,-71.238185)">
    <g
       id="g7"
       transform="translate(-1.5875,1.5875)">
      <path
         style="font-weight:900;font-size:14.1111px;font-family:'Ysabeau Infant';-inkscape-font-specification:'Ysabeau Infant Heavy';stroke-width:0.264583"
         d="m 136.40805,83.874681 q 0,-0.296333 -0.22578,-0.493888 -0.21167,-0.197556 -0.57855,-0.352778 -0.35278,-0.169333 -0.79023,-0.324555 -0.42333,-0.169333 -0.86077,-0.381 -0.42334,-0.211666 -0.79022,-0.52211 -0.35278,-0.324556 -0.57856,-0.790222 -0.21167,-0.465666 -0.21167,-1.142999 0,-0.945444 0.43745,-1.622777 0.45155,-0.677332 1.25589,-1.044221 0.80433,-0.381 1.87677,-0.381 0.60678,0 1.35467,0.141111 0.74789,0.127 1.34055,0.395111 l -0.86077,2.130776 q -0.55034,-0.366888 -1.10067,-0.564444 -0.55033,-0.197555 -1.016,-0.197555 -0.32455,0 -0.52211,0.112889 -0.18344,0.09878 -0.28222,0.26811 -0.0847,0.155223 -0.0847,0.324556 0,0.282222 0.21167,0.493888 0.22578,0.197556 0.57855,0.352778 0.36689,0.155222 0.80434,0.324555 0.43744,0.169333 0.87488,0.395111 0.43745,0.225777 0.79023,0.550333 0.36688,0.310444 0.57855,0.77611 0.22578,0.465667 0.22578,1.128888 0,1.044222 -0.52211,1.749777 -0.52211,0.691444 -1.38289,1.044221 -0.86078,0.338667 -1.86267,0.338667 -0.93133,0 -1.70744,-0.239889 -0.77611,-0.254 -1.36878,-0.564444 l 0.81845,-2.130776 q 0.66322,0.423333 1.35466,0.705555 0.69145,0.282222 1.29822,0.282222 0.46567,0 0.70556,-0.211667 0.23989,-0.225777 0.23989,-0.550333 z"
         id="path7" />
      <path
         style="font-weight:900;font-size:14.1111px;font-family:'Ysabeau Infant';-inkscape-font-specification:'Ysabeau Infant Heavy';stroke-width:0.264583"
         d="m 127.39813,86.344124 -2.27189,-9.285104 h 2.25778 l 2.14489,8.59366 h -0.86078 l 1.651,-8.59366 h 2.38477 l -2.49766,9.285104 z m -5.75733,0 -2.37066,-9.285104 h 2.77988 l 1.73567,8.59366 h -0.87489 l 2.08844,-8.59366 h 1.82033 l -2.34244,9.285104 z"
         id="path6" />
      <path
         style="font-weight:900;font-size:14.1111px;font-family:'Ysabeau Infant';-inkscape-font-specification:'Ysabeau Infant Heavy';stroke-width:0.264583"
         d="m 114.8181,86.584013 q -1.42523,0 -2.51178,-0.578556 -1.08656,-0.592666 -1.70744,-1.636887 -0.60678,-1.058333 -0.60678,-2.455332 0,-1.171221 0.39511,-2.102554 0.39511,-0.945443 1.10067,-1.608665 0.71966,-0.677333 1.67922,-1.03011 0.97366,-0.352778 2.13077,-0.352778 1.42522,0 2.51178,0.592666 1.08655,0.578556 1.69333,1.636888 0.60678,1.058333 0.60678,2.469443 0,1.15711 -0.39511,2.102554 -0.39511,0.931332 -1.10067,1.594554 -0.70555,0.663222 -1.67922,1.015999 -0.95955,0.352778 -2.11666,0.352778 z m 0.40922,-1.749777 q 0.62089,0 1.016,-0.324555 0.40922,-0.338667 0.60677,-0.973666 0.19756,-0.635 0.19756,-1.566332 0,-1.15711 -0.254,-1.890888 -0.23989,-0.747888 -0.71967,-1.100665 -0.46566,-0.366889 -1.11477,-0.366889 -0.60678,0 -1.03011,0.310444 -0.40923,0.310444 -0.635,0.959555 -0.22578,0.634999 -0.22578,1.594554 0,1.15711 0.28222,1.904999 0.28222,0.733777 0.762,1.100666 0.49389,0.352777 1.11478,0.352777 z"
         id="path5" />
      <path
         style="font-weight:900;font-size:14.1111px;font-family:'Ysabeau Infant';-inkscape-font-specification:'Ysabeau Infant Heavy';stroke-width:0.264583"
         d="M 101.10918,86.344124 V 77.05902 h 1.91911 l 0.35278,9.285104 z m 7.6341,0 h -1.08655 l -5.68677,-7.535328 0.0423,-1.749776 h 1.50989 l 5.24933,6.745106 z m 1.016,-9.285104 v 9.285104 h -1.905 l -0.35277,-9.285104 z"
         id="path4" />
      <path
         style="font-weight:900;font-size:14.1111px;font-family:'Ysabeau Infant';-inkscape-font-specification:'Ysabeau Infant Heavy';stroke-width:0.264583"
         d="m 97.76485,86.344124 -3.189109,-4.74133 3.090331,-4.543774 h 2.850438 l -3.922881,4.825996 0.05644,-1.255888 4.543781,5.714996 z m -5.658551,0 V 77.05902 h 2.652887 v 9.285104 z"
         id="path3" />
    </g>
    <g
       id="g8"
       transform="translate(5.2916669,-2.6458334)">
      <path
         style="font-weight:900;font-size:14.1111px;font-family:'Ysabeau Infant';-inkscape-font-specification:'Ysabeau Infant Heavy';stroke-width:0.264583"
         d="m 76.407698,83.169122 v -9.285104 h 1.919109 l 0.352778,9.285104 z m 7.634105,0 h -1.086555 l -5.686773,-7.535328 0.04233,-1.749776 h 1.509888 l 5.249329,6.745106 z m 1.015999,-9.285104 v 9.285104 h -1.904998 l -0.352778,-9.285104 z"
         id="path2" />
      <path
         style="font-weight:900;font-size:14.1111px;font-family:'Ysabeau Infant';-inkscape-font-specification:'Ysabeau Infant Heavy';stroke-width:0.264583"
         d="m 73.444373,83.169122 v -9.285104 h 2.723443 v 9.285104 z"
         id="path1" />
      <path
         style="font-weight:900;font-size:14.1111px;font-family:'Ysabeau Infant';-inkscape-font-specification:'Ysabeau Infant Heavy';stroke-width:0.264583"
         d="m 68.145662,83.169122 -2.271888,-9.285104 h 2.257776 l 2.144888,8.59366 h -0.860777 l 1.650998,-8.59366 h 2.384776 l -2.497665,9.285104 z m -5.757329,0 -2.370665,-9.285104 h 2.779887 l 1.735665,8.59366 h -0.874888 l 2.088442,-8.59366 h 1.820332 l -2.342442,9.285104 z"
         id="text1" />
    </g>
  </g>
</svg>
